<mxfile host="app.diagrams.net" modified="2023-03-16T18:14:15.724Z" agent="5.0 (Macintosh; Intel Mac OS X 10_15_7) AppleWebKit/537.36 (KHTML, like Gecko) Chrome/109.0.0.0 Safari/537.36" etag="UQwT6oaZ_rc8-ISlIWok" version="20.8.23" type="github">
  <diagram id="R2lEEEUBdFMjLlhIrx00" name="Page-1">
    <mxGraphModel dx="1732" dy="401" grid="1" gridSize="10" guides="1" tooltips="1" connect="1" arrows="1" fold="1" page="1" pageScale="1" pageWidth="850" pageHeight="1100" math="0" shadow="0" extFonts="Permanent Marker^https://fonts.googleapis.com/css?family=Permanent+Marker">
      <root>
        <mxCell id="0" />
        <mxCell id="1" parent="0" />
        <mxCell id="rWBV-3qN-qN6Ovk4eOLW-20" style="edgeStyle=none;rounded=0;orthogonalLoop=1;jettySize=auto;html=1;exitX=0;exitY=0.5;exitDx=0;exitDy=0;entryX=0.977;entryY=0.333;entryDx=0;entryDy=0;entryPerimeter=0;endArrow=none;endFill=0;" edge="1" parent="1" source="rWBV-3qN-qN6Ovk4eOLW-2" target="rWBV-3qN-qN6Ovk4eOLW-18">
          <mxGeometry relative="1" as="geometry" />
        </mxCell>
        <mxCell id="rWBV-3qN-qN6Ovk4eOLW-21" style="edgeStyle=none;rounded=0;orthogonalLoop=1;jettySize=auto;html=1;exitX=0;exitY=1;exitDx=0;exitDy=0;endArrow=none;endFill=0;" edge="1" parent="1" source="rWBV-3qN-qN6Ovk4eOLW-2" target="rWBV-3qN-qN6Ovk4eOLW-19">
          <mxGeometry relative="1" as="geometry" />
        </mxCell>
        <mxCell id="rWBV-3qN-qN6Ovk4eOLW-46" style="edgeStyle=none;rounded=0;orthogonalLoop=1;jettySize=auto;html=1;exitX=1;exitY=0.5;exitDx=0;exitDy=0;entryX=0;entryY=0.5;entryDx=0;entryDy=0;endArrow=none;endFill=0;" edge="1" parent="1" source="rWBV-3qN-qN6Ovk4eOLW-2" target="rWBV-3qN-qN6Ovk4eOLW-43">
          <mxGeometry relative="1" as="geometry" />
        </mxCell>
        <mxCell id="rWBV-3qN-qN6Ovk4eOLW-2" value="Vehicles&lt;span style=&quot;font-size: medium; text-align: start;&quot;&gt;&lt;/span&gt;" style="rounded=0;whiteSpace=wrap;html=1;fontStyle=2" vertex="1" parent="1">
          <mxGeometry x="50" y="260" width="80" height="30" as="geometry" />
        </mxCell>
        <mxCell id="rWBV-3qN-qN6Ovk4eOLW-6" value="Students&lt;span style=&quot;font-size: medium; text-align: start;&quot;&gt;&lt;/span&gt;" style="rounded=0;whiteSpace=wrap;html=1;fontStyle=2" vertex="1" parent="1">
          <mxGeometry x="500" y="490" width="80" height="30" as="geometry" />
        </mxCell>
        <mxCell id="rWBV-3qN-qN6Ovk4eOLW-68" style="edgeStyle=none;rounded=0;orthogonalLoop=1;jettySize=auto;html=1;exitX=0;exitY=0.5;exitDx=0;exitDy=0;entryX=1;entryY=0.5;entryDx=0;entryDy=0;fontColor=#FF0000;endArrow=none;endFill=0;" edge="1" parent="1" source="rWBV-3qN-qN6Ovk4eOLW-7" target="rWBV-3qN-qN6Ovk4eOLW-67">
          <mxGeometry relative="1" as="geometry" />
        </mxCell>
        <mxCell id="rWBV-3qN-qN6Ovk4eOLW-71" style="edgeStyle=none;rounded=0;orthogonalLoop=1;jettySize=auto;html=1;exitX=0.25;exitY=0;exitDx=0;exitDy=0;fontColor=#FF0000;endArrow=open;endFill=0;" edge="1" parent="1" source="rWBV-3qN-qN6Ovk4eOLW-7">
          <mxGeometry relative="1" as="geometry">
            <mxPoint x="600.2222222222222" y="250" as="targetPoint" />
          </mxGeometry>
        </mxCell>
        <mxCell id="rWBV-3qN-qN6Ovk4eOLW-7" value="Courses&lt;span style=&quot;font-size: medium; text-align: start;&quot;&gt;&lt;/span&gt;" style="rounded=0;whiteSpace=wrap;html=1;fontStyle=2" vertex="1" parent="1">
          <mxGeometry x="580" y="260" width="80" height="30" as="geometry" />
        </mxCell>
        <mxCell id="rWBV-3qN-qN6Ovk4eOLW-11" value="registration_number&lt;span style=&quot;font-size: medium; text-align: start;&quot;&gt;&lt;/span&gt;" style="ellipse;whiteSpace=wrap;html=1;fontStyle=2;fontColor=#FF3333;" vertex="1" parent="1">
          <mxGeometry y="220" width="150" height="30" as="geometry" />
        </mxCell>
        <mxCell id="rWBV-3qN-qN6Ovk4eOLW-12" value="" style="endArrow=none;html=1;rounded=0;exitX=0.5;exitY=1;exitDx=0;exitDy=0;entryX=0.5;entryY=0;entryDx=0;entryDy=0;" edge="1" parent="1" source="rWBV-3qN-qN6Ovk4eOLW-11" target="rWBV-3qN-qN6Ovk4eOLW-2">
          <mxGeometry width="50" height="50" relative="1" as="geometry">
            <mxPoint x="470" y="430" as="sourcePoint" />
            <mxPoint x="520" y="380" as="targetPoint" />
          </mxGeometry>
        </mxCell>
        <mxCell id="rWBV-3qN-qN6Ovk4eOLW-18" value="purchase_year&lt;span style=&quot;font-size: medium; text-align: start;&quot;&gt;&lt;/span&gt;" style="ellipse;whiteSpace=wrap;html=1;fontStyle=2" vertex="1" parent="1">
          <mxGeometry x="-90" y="260" width="120" height="20" as="geometry" />
        </mxCell>
        <mxCell id="rWBV-3qN-qN6Ovk4eOLW-19" value="market_value&lt;span style=&quot;font-size: medium; text-align: start;&quot;&gt;&lt;/span&gt;" style="ellipse;whiteSpace=wrap;html=1;fontStyle=2" vertex="1" parent="1">
          <mxGeometry x="-80" y="290" width="100" height="20" as="geometry" />
        </mxCell>
        <mxCell id="rWBV-3qN-qN6Ovk4eOLW-23" style="edgeStyle=none;rounded=0;orthogonalLoop=1;jettySize=auto;html=1;exitX=0;exitY=0.5;exitDx=0;exitDy=0;entryX=1;entryY=0.5;entryDx=0;entryDy=0;endArrow=none;endFill=0;" edge="1" parent="1" source="rWBV-3qN-qN6Ovk4eOLW-22" target="rWBV-3qN-qN6Ovk4eOLW-6">
          <mxGeometry relative="1" as="geometry" />
        </mxCell>
        <mxCell id="rWBV-3qN-qN6Ovk4eOLW-24" style="edgeStyle=none;rounded=0;orthogonalLoop=1;jettySize=auto;html=1;exitX=1;exitY=0.5;exitDx=0;exitDy=0;entryX=0.5;entryY=1;entryDx=0;entryDy=0;endArrow=none;endFill=0;" edge="1" parent="1" source="rWBV-3qN-qN6Ovk4eOLW-22" target="rWBV-3qN-qN6Ovk4eOLW-7">
          <mxGeometry relative="1" as="geometry" />
        </mxCell>
        <mxCell id="rWBV-3qN-qN6Ovk4eOLW-22" value="choose" style="rhombus;whiteSpace=wrap;html=1;" vertex="1" parent="1">
          <mxGeometry x="490" y="365" width="80" height="35" as="geometry" />
        </mxCell>
        <mxCell id="rWBV-3qN-qN6Ovk4eOLW-39" style="edgeStyle=none;rounded=0;orthogonalLoop=1;jettySize=auto;html=1;exitX=1;exitY=0.5;exitDx=0;exitDy=0;entryX=0;entryY=0;entryDx=0;entryDy=0;endArrow=none;endFill=0;" edge="1" parent="1" source="rWBV-3qN-qN6Ovk4eOLW-31" target="rWBV-3qN-qN6Ovk4eOLW-38">
          <mxGeometry relative="1" as="geometry" />
        </mxCell>
        <mxCell id="rWBV-3qN-qN6Ovk4eOLW-60" style="edgeStyle=none;rounded=0;orthogonalLoop=1;jettySize=auto;html=1;exitX=0.5;exitY=0;exitDx=0;exitDy=0;entryX=0.5;entryY=1;entryDx=0;entryDy=0;endArrow=none;endFill=0;" edge="1" parent="1" source="rWBV-3qN-qN6Ovk4eOLW-31" target="rWBV-3qN-qN6Ovk4eOLW-57">
          <mxGeometry relative="1" as="geometry" />
        </mxCell>
        <mxCell id="rWBV-3qN-qN6Ovk4eOLW-31" value="Employees" style="rounded=0;whiteSpace=wrap;html=1;fontStyle=2" vertex="1" parent="1">
          <mxGeometry x="330" y="410" width="80" height="30" as="geometry" />
        </mxCell>
        <mxCell id="rWBV-3qN-qN6Ovk4eOLW-32" style="edgeStyle=none;rounded=0;orthogonalLoop=1;jettySize=auto;html=1;exitX=1;exitY=0;exitDx=0;exitDy=0;entryX=0;entryY=1;entryDx=0;entryDy=0;endArrow=none;endFill=0;" edge="1" parent="1" source="rWBV-3qN-qN6Ovk4eOLW-33" target="rWBV-3qN-qN6Ovk4eOLW-31">
          <mxGeometry relative="1" as="geometry" />
        </mxCell>
        <mxCell id="rWBV-3qN-qN6Ovk4eOLW-33" value="name&lt;span style=&quot;font-size: medium; text-align: start;&quot;&gt;&lt;/span&gt;" style="ellipse;whiteSpace=wrap;html=1;fontStyle=2;verticalAlign=middle;" vertex="1" parent="1">
          <mxGeometry x="250" y="450" width="80" height="20" as="geometry" />
        </mxCell>
        <mxCell id="rWBV-3qN-qN6Ovk4eOLW-34" style="edgeStyle=none;rounded=0;orthogonalLoop=1;jettySize=auto;html=1;exitX=0.5;exitY=0;exitDx=0;exitDy=0;entryX=0.5;entryY=1;entryDx=0;entryDy=0;endArrow=none;endFill=0;" edge="1" parent="1" source="rWBV-3qN-qN6Ovk4eOLW-35" target="rWBV-3qN-qN6Ovk4eOLW-31">
          <mxGeometry relative="1" as="geometry" />
        </mxCell>
        <mxCell id="rWBV-3qN-qN6Ovk4eOLW-35" value="address&lt;span style=&quot;font-size: medium; text-align: start;&quot;&gt;&lt;/span&gt;" style="ellipse;whiteSpace=wrap;html=1;fontStyle=2;verticalAlign=middle;" vertex="1" parent="1">
          <mxGeometry x="340" y="450" width="80" height="20" as="geometry" />
        </mxCell>
        <mxCell id="rWBV-3qN-qN6Ovk4eOLW-36" style="edgeStyle=none;rounded=0;orthogonalLoop=1;jettySize=auto;html=1;exitX=1;exitY=0.5;exitDx=0;exitDy=0;entryX=0;entryY=0.25;entryDx=0;entryDy=0;endArrow=none;endFill=0;" edge="1" parent="1" source="rWBV-3qN-qN6Ovk4eOLW-37" target="rWBV-3qN-qN6Ovk4eOLW-31">
          <mxGeometry relative="1" as="geometry" />
        </mxCell>
        <mxCell id="rWBV-3qN-qN6Ovk4eOLW-37" value="phone_number&lt;span style=&quot;font-size: medium; text-align: start;&quot;&gt;&lt;/span&gt;" style="ellipse;whiteSpace=wrap;html=1;fontStyle=2;verticalAlign=middle;" vertex="1" parent="1">
          <mxGeometry x="210" y="410" width="100" height="30" as="geometry" />
        </mxCell>
        <mxCell id="rWBV-3qN-qN6Ovk4eOLW-38" value="type&lt;span style=&quot;font-size: medium; text-align: start;&quot;&gt;&lt;/span&gt;" style="ellipse;whiteSpace=wrap;html=1;fontStyle=2;verticalAlign=middle;" vertex="1" parent="1">
          <mxGeometry x="430" y="430" width="80" height="20" as="geometry" />
        </mxCell>
        <mxCell id="rWBV-3qN-qN6Ovk4eOLW-40" value="name&lt;span style=&quot;font-size: medium; text-align: start;&quot;&gt;&lt;/span&gt;" style="ellipse;whiteSpace=wrap;html=1;fontStyle=2;verticalAlign=middle;" vertex="1" parent="1">
          <mxGeometry x="490" y="592.5" width="80" height="20" as="geometry" />
        </mxCell>
        <mxCell id="rWBV-3qN-qN6Ovk4eOLW-47" style="edgeStyle=none;rounded=0;orthogonalLoop=1;jettySize=auto;html=1;exitX=1;exitY=0.5;exitDx=0;exitDy=0;entryX=0;entryY=0.5;entryDx=0;entryDy=0;endArrow=open;endFill=0;" edge="1" parent="1" source="rWBV-3qN-qN6Ovk4eOLW-43" target="rWBV-3qN-qN6Ovk4eOLW-44">
          <mxGeometry relative="1" as="geometry" />
        </mxCell>
        <mxCell id="rWBV-3qN-qN6Ovk4eOLW-43" value="belong to" style="rhombus;whiteSpace=wrap;html=1;" vertex="1" parent="1">
          <mxGeometry x="190" y="260" width="80" height="30" as="geometry" />
        </mxCell>
        <mxCell id="rWBV-3qN-qN6Ovk4eOLW-50" style="edgeStyle=none;rounded=0;orthogonalLoop=1;jettySize=auto;html=1;exitX=0.25;exitY=0;exitDx=0;exitDy=0;entryX=0.346;entryY=0.946;entryDx=0;entryDy=0;entryPerimeter=0;endArrow=none;endFill=0;" edge="1" parent="1" source="rWBV-3qN-qN6Ovk4eOLW-44" target="rWBV-3qN-qN6Ovk4eOLW-48">
          <mxGeometry relative="1" as="geometry" />
        </mxCell>
        <mxCell id="rWBV-3qN-qN6Ovk4eOLW-51" style="edgeStyle=none;rounded=0;orthogonalLoop=1;jettySize=auto;html=1;exitX=0.75;exitY=0;exitDx=0;exitDy=0;entryX=0.5;entryY=1;entryDx=0;entryDy=0;endArrow=none;endFill=0;" edge="1" parent="1" source="rWBV-3qN-qN6Ovk4eOLW-44" target="rWBV-3qN-qN6Ovk4eOLW-49">
          <mxGeometry relative="1" as="geometry" />
        </mxCell>
        <mxCell id="rWBV-3qN-qN6Ovk4eOLW-44" value="Vehicle_types&lt;span style=&quot;font-size: medium; text-align: start;&quot;&gt;&lt;/span&gt;" style="rounded=0;whiteSpace=wrap;html=1;fontStyle=2" vertex="1" parent="1">
          <mxGeometry x="330" y="260" width="80" height="30" as="geometry" />
        </mxCell>
        <mxCell id="rWBV-3qN-qN6Ovk4eOLW-48" value="id&lt;span style=&quot;font-size: medium; text-align: start;&quot;&gt;&lt;/span&gt;" style="ellipse;whiteSpace=wrap;html=1;fontStyle=2;fontColor=#FF0000;" vertex="1" parent="1">
          <mxGeometry x="300" y="225" width="50" height="20" as="geometry" />
        </mxCell>
        <mxCell id="rWBV-3qN-qN6Ovk4eOLW-49" value="name&lt;span style=&quot;font-size: medium; text-align: start;&quot;&gt;&lt;/span&gt;" style="ellipse;whiteSpace=wrap;html=1;fontStyle=2" vertex="1" parent="1">
          <mxGeometry x="360" y="225" width="50" height="20" as="geometry" />
        </mxCell>
        <mxCell id="rWBV-3qN-qN6Ovk4eOLW-56" style="edgeStyle=none;rounded=0;orthogonalLoop=1;jettySize=auto;html=1;exitX=1;exitY=1;exitDx=0;exitDy=0;entryX=0;entryY=0;entryDx=0;entryDy=0;endArrow=none;endFill=0;" edge="1" parent="1" source="rWBV-3qN-qN6Ovk4eOLW-55" target="rWBV-3qN-qN6Ovk4eOLW-31">
          <mxGeometry relative="1" as="geometry" />
        </mxCell>
        <mxCell id="rWBV-3qN-qN6Ovk4eOLW-55" value="id&lt;span style=&quot;font-size: medium; text-align: start;&quot;&gt;&lt;/span&gt;" style="ellipse;whiteSpace=wrap;html=1;fontStyle=2;verticalAlign=middle;fontColor=#FF0000;" vertex="1" parent="1">
          <mxGeometry x="275" y="380" width="30" height="20" as="geometry" />
        </mxCell>
        <mxCell id="rWBV-3qN-qN6Ovk4eOLW-58" style="edgeStyle=none;rounded=0;orthogonalLoop=1;jettySize=auto;html=1;exitX=0.5;exitY=0;exitDx=0;exitDy=0;entryX=0.5;entryY=1;entryDx=0;entryDy=0;endArrow=open;endFill=0;" edge="1" parent="1" source="rWBV-3qN-qN6Ovk4eOLW-57" target="rWBV-3qN-qN6Ovk4eOLW-44">
          <mxGeometry relative="1" as="geometry" />
        </mxCell>
        <mxCell id="rWBV-3qN-qN6Ovk4eOLW-57" value="teach" style="rhombus;whiteSpace=wrap;html=1;" vertex="1" parent="1">
          <mxGeometry x="330" y="340" width="80" height="30" as="geometry" />
        </mxCell>
        <mxCell id="rWBV-3qN-qN6Ovk4eOLW-62" value="id&lt;span style=&quot;font-size: medium; text-align: start;&quot;&gt;&lt;/span&gt;" style="ellipse;whiteSpace=wrap;html=1;fontStyle=2;verticalAlign=middle;" vertex="1" parent="1">
          <mxGeometry x="530" y="550" width="40" height="20" as="geometry" />
        </mxCell>
        <mxCell id="rWBV-3qN-qN6Ovk4eOLW-63" value="status&lt;span style=&quot;font-size: medium; text-align: start;&quot;&gt;&lt;/span&gt;" style="ellipse;whiteSpace=wrap;html=1;fontStyle=2;verticalAlign=middle;" vertex="1" parent="1">
          <mxGeometry x="530" y="630" width="80" height="20" as="geometry" />
        </mxCell>
        <mxCell id="rWBV-3qN-qN6Ovk4eOLW-64" value="driving_hours&lt;span style=&quot;font-size: medium; text-align: start;&quot;&gt;&lt;/span&gt;" style="ellipse;whiteSpace=wrap;html=1;fontStyle=2;verticalAlign=middle;" vertex="1" parent="1">
          <mxGeometry x="650" y="220" width="80" height="30" as="geometry" />
        </mxCell>
        <mxCell id="rWBV-3qN-qN6Ovk4eOLW-66" style="edgeStyle=none;rounded=0;orthogonalLoop=1;jettySize=auto;html=1;exitX=0;exitY=1;exitDx=0;exitDy=0;entryX=1;entryY=0;entryDx=0;entryDy=0;fontColor=#FF0000;endArrow=none;endFill=0;" edge="1" parent="1" source="rWBV-3qN-qN6Ovk4eOLW-65" target="rWBV-3qN-qN6Ovk4eOLW-44">
          <mxGeometry relative="1" as="geometry" />
        </mxCell>
        <mxCell id="rWBV-3qN-qN6Ovk4eOLW-65" value="required_hours&lt;span style=&quot;font-size: medium; text-align: start;&quot;&gt;&lt;/span&gt;" style="ellipse;whiteSpace=wrap;html=1;fontStyle=2;verticalAlign=middle;" vertex="1" parent="1">
          <mxGeometry x="420" y="220" width="95" height="30" as="geometry" />
        </mxCell>
        <mxCell id="rWBV-3qN-qN6Ovk4eOLW-69" style="edgeStyle=none;rounded=0;orthogonalLoop=1;jettySize=auto;html=1;exitX=0;exitY=0.5;exitDx=0;exitDy=0;entryX=1;entryY=0.5;entryDx=0;entryDy=0;fontColor=#FF0000;endArrow=open;endFill=0;" edge="1" parent="1" source="rWBV-3qN-qN6Ovk4eOLW-67" target="rWBV-3qN-qN6Ovk4eOLW-44">
          <mxGeometry relative="1" as="geometry" />
        </mxCell>
        <mxCell id="rWBV-3qN-qN6Ovk4eOLW-67" value="for" style="rhombus;whiteSpace=wrap;html=1;" vertex="1" parent="1">
          <mxGeometry x="460" y="260" width="80" height="30" as="geometry" />
        </mxCell>
        <mxCell id="rWBV-3qN-qN6Ovk4eOLW-70" value="id&lt;span style=&quot;font-size: medium; text-align: start;&quot;&gt;&lt;/span&gt;" style="ellipse;whiteSpace=wrap;html=1;fontStyle=2;fontColor=#FF0000;" vertex="1" parent="1">
          <mxGeometry x="570" y="225" width="50" height="20" as="geometry" />
        </mxCell>
      </root>
    </mxGraphModel>
  </diagram>
</mxfile>
